<svg width="90" height="100" viewBox="0 0 90 100" fill="none" xmlns="http://www.w3.org/2000/svg">
<g id="aws 1">
<path id="Vector" d="M25.3688 48.0437C25.3688 49.275 25.4813 50.275 25.695 51.0125C25.9313 51.7437 26.235 52.5437 26.6513 53.4125C26.7841 53.642 26.8562 53.9084 26.8594 54.1812C26.8594 54.5125 26.6794 54.85 26.2969 55.1813L24.4069 56.5813C24.18 56.7632 23.9102 56.8675 23.6306 56.8812C23.3269 56.8812 23.0288 56.7188 22.7306 56.4188C22.3263 55.9354 21.9647 55.4101 21.6506 54.85C21.316 54.2088 21.0063 53.552 20.7225 52.8813C18.3881 55.95 15.4575 57.4875 11.925 57.4875C9.41063 57.4875 7.4025 56.6812 5.94 55.0812C4.47188 53.4812 3.72375 51.3438 3.72375 48.675C3.72375 45.8375 4.62376 43.5375 6.44625 41.8C8.27438 40.0625 10.6988 39.2 13.7813 39.2C14.7938 39.2 15.8456 39.3 16.9538 39.4625C18.0619 39.6313 19.2038 39.9 20.3963 40.2V37.7625C20.3963 35.225 19.9181 33.4563 18.99 32.425C18.0338 31.3875 16.4138 30.8875 14.1075 30.8875C13.0613 30.8875 11.9869 31.025 10.8788 31.325C9.77779 31.6161 8.69692 31.9942 7.64438 32.4562C7.30456 32.6272 6.95507 32.7733 6.59813 32.8938C6.44346 32.9505 6.28267 32.9842 6.12001 32.9937C5.69813 32.9937 5.49 32.6562 5.49 31.9563V30.3187C5.49 29.7875 5.54625 29.3813 5.69813 29.1563C5.9248 28.8496 6.21406 28.6075 6.54188 28.45C7.5825 27.85 8.8425 27.35 10.3106 26.95C11.7731 26.5125 13.3313 26.3188 14.9794 26.3188C18.54 26.3188 21.1444 27.2188 22.8206 29.0188C24.4688 30.8188 25.3069 33.5562 25.3069 37.2312V48.0437H25.3631H25.3688ZM13.2131 53.1125C14.1975 53.1125 15.2156 52.9125 16.2956 52.5125C17.37 52.1125 18.3319 51.375 19.1363 50.375C19.6186 49.761 19.967 49.0317 20.1544 48.2437C20.3344 47.4375 20.4581 46.475 20.4581 45.3375V43.9375C19.5496 43.6927 18.6294 43.5049 17.7019 43.375C16.7692 43.2409 15.8298 43.1721 14.8894 43.1688C12.8813 43.1688 11.4131 43.6062 10.4288 44.5062C9.43875 45.4062 8.96625 46.675 8.96625 48.3438C8.96625 49.9062 9.32063 51.075 10.0688 51.8812C10.7888 52.7125 11.835 53.1125 13.2131 53.1125ZM37.2488 56.7187C36.7088 56.7187 36.3488 56.6187 36.1125 56.3812C35.8706 56.1812 35.6625 55.7187 35.4825 55.0812L28.4513 29.2875C28.3126 28.8552 28.2201 28.4063 28.1756 27.95C28.1756 27.4188 28.4175 27.1188 28.8956 27.1188H31.8319C32.3944 27.1188 32.7881 27.2188 32.9963 27.45C33.2381 27.65 33.4181 28.1188 33.5981 28.75L38.6269 50.8438L43.2956 28.75C43.4419 28.0875 43.6219 27.65 43.8581 27.45C44.2191 27.2044 44.6395 27.0887 45.0619 27.1188H47.4525C48.0263 27.1188 48.4088 27.2188 48.6506 27.45C48.8925 27.65 49.1006 28.1188 49.2188 28.75L53.9494 51.1125L59.1244 28.75C59.2204 28.2661 59.4277 27.8181 59.7263 27.45C60.0748 27.2046 60.4845 27.0886 60.8963 27.1188H63.6806C64.1588 27.1188 64.4288 27.3875 64.4288 27.95C64.4288 28.1188 64.395 28.2875 64.3725 28.4875C64.3241 28.7712 64.2526 29.0495 64.1588 29.3188L56.9419 55.1125C56.7619 55.7812 56.5538 56.2188 56.3175 56.4188C55.9778 56.6602 55.5782 56.7761 55.1756 56.75H52.605C52.0369 56.75 51.6488 56.65 51.4069 56.4188C51.165 56.1813 50.9569 55.75 50.8388 55.0812L46.1981 33.5625L41.5856 55.0562C41.4394 55.725 41.2594 56.1562 41.0231 56.3875C40.7813 56.625 40.3594 56.725 39.825 56.725H37.2488V56.7187ZM75.7125 57.6187C74.1591 57.6211 72.6109 57.4197 71.1 57.0187C69.6038 56.6187 68.4394 56.1813 67.6575 55.6813C67.1794 55.3813 66.8531 55.05 66.7294 54.7437C66.615 54.4497 66.5557 54.1328 66.555 53.8125V52.1125C66.555 51.4125 66.7913 51.075 67.2413 51.075C67.425 51.0755 67.6074 51.1092 67.7813 51.175C67.9613 51.2437 68.2313 51.375 68.5294 51.5125C69.5419 52.0125 70.6556 52.4125 71.82 52.6812C73.0181 52.9437 74.1825 53.0812 75.3806 53.0812C77.2706 53.0812 78.7331 52.7125 79.7513 51.9813C80.2404 51.6523 80.6422 51.1851 80.9159 50.6274C81.1896 50.0696 81.3254 49.4413 81.3094 48.8062C81.3195 48.3775 81.2531 47.9508 81.1141 47.5507C80.9751 47.1506 80.7662 46.785 80.4994 46.475C79.965 45.8375 78.9469 45.2687 77.4788 44.7375L73.1363 43.2375C70.9538 42.4688 69.3338 41.3313 68.3494 39.8313C67.3857 38.4453 66.8599 36.7451 66.8531 34.9938C66.8531 33.5938 67.1231 32.3563 67.6575 31.2875C68.1975 30.225 68.9175 29.2875 69.8175 28.55C70.7175 27.7875 71.73 27.2188 72.9281 26.8188C74.1263 26.4188 75.3806 26.25 76.6969 26.25C77.3606 26.25 78.0469 26.2813 78.705 26.3813C79.3913 26.4813 80.0213 26.6188 80.6513 26.7563C81.2475 26.9188 81.8213 27.0813 82.3556 27.2875C82.8956 27.4875 83.3119 27.6875 83.6156 27.8875C83.9688 28.0846 84.2767 28.3689 84.5156 28.7187C84.7082 29.0442 84.8009 29.43 84.78 29.8188V31.3875C84.78 32.0875 84.5438 32.4562 84.0938 32.4562C83.6953 32.4057 83.3095 32.2699 82.9575 32.0563C81.1487 31.1652 79.1871 30.7216 77.2088 30.7563C75.5044 30.7563 74.1544 31.0563 73.2263 31.6938C72.2981 32.3188 71.82 33.2938 71.82 34.6625C71.82 35.5938 72.1181 36.3938 72.72 37.0313C73.3163 37.6625 74.4244 38.2937 76.0106 38.8625L80.2631 40.3625C82.4175 41.1313 83.9756 42.2 84.9038 43.5688C85.8319 44.9375 86.2763 46.5062 86.2763 48.2437C86.2763 49.6812 86.0119 50.975 85.5 52.1125C84.97 53.2539 84.2258 54.2556 83.3175 55.05C82.3894 55.8812 81.2813 56.4875 79.9931 56.9188C78.6431 57.3875 77.2369 57.6187 75.7125 57.6187Z" fill="#B4B9BF"/>
<g id="Group">
<path id="Vector_2" fill-rule="evenodd" clip-rule="evenodd" d="M81.3658 73.8312C71.5221 81.9375 57.2121 86.2437 44.9102 86.2437C27.6696 86.2437 12.1333 79.1375 0.399593 67.325C-0.528532 66.3875 0.309593 65.1187 1.41209 65.8562C14.1077 74.0625 29.7621 79.0375 45.9621 79.0375C56.8802 79.0375 68.884 76.5 79.9315 71.2937C81.5796 70.4625 82.9858 72.4937 81.3658 73.8312Z" fill="#FF9900"/>
<path id="Vector_3" fill-rule="evenodd" clip-rule="evenodd" d="M85.4662 68.625C84.2119 66.8313 77.1469 67.7625 73.9462 68.1938C72.99 68.3313 72.8381 67.3938 73.7044 66.6938C79.3294 62.2875 88.5825 63.5563 89.6569 65.025C90.7369 66.525 89.3587 76.8375 84.0881 81.775C83.2837 82.5438 82.5075 82.15 82.8619 81.15C84.06 77.8375 86.7262 70.4 85.4662 68.6313V68.625Z" fill="#FF9900"/>
</g>
</g>
</svg>
