<svg width="160" height="140" viewBox="0 0 160 140" fill="none" xmlns="http://www.w3.org/2000/svg">
<g clip-path="url(#clip0_79033_416)">
<path d="M128.058 0C124.412 0 121.445 2.59586 121.445 5.78687V15.6251H104.821V15.1101C104.821 12.8341 103.809 10.6977 101.974 9.0963C100.136 7.48784 97.6941 6.6022 95.0978 6.6022C89.7364 6.6022 85.3744 10.4189 85.3744 15.1101V15.6251H78.5445V15.1101C78.5445 12.8365 77.5316 10.7001 75.6962 9.09784C73.8615 7.48846 71.4199 6.6022 68.8208 6.6022C63.4594 6.6022 59.0974 10.4189 59.0974 15.1101V15.6251H38.5547V5.78687C38.5547 2.59586 35.588 0 31.9418 0C28.2957 0 25.3286 2.59586 25.3286 5.78687V138.15C25.3286 139.171 26.2756 140 27.4432 140C28.6107 140 29.5577 139.171 29.5577 138.15V5.78687C29.5577 4.63665 30.6269 3.70044 31.9418 3.70044C33.2567 3.70044 34.326 4.63634 34.326 5.78687V138.15C34.326 139.171 35.2729 140 36.4405 140C37.6081 140 38.555 139.171 38.555 138.15V19.3256H54.1216V20.4912C54.1216 23.4198 56.1371 26.0523 59.0978 27.2399V112.281C59.0978 116.955 63.4439 120.758 68.7859 120.758C74.1279 120.758 78.474 116.955 78.474 112.281V103.426C79.6098 103.583 80.7735 103.667 81.9594 103.667C83.1587 103.667 84.3351 103.581 85.4837 103.42V112.28C85.4837 116.955 89.8298 120.757 95.1718 120.757C100.514 120.757 104.86 116.955 104.86 112.279L104.821 38.5953V27.2658C105.757 26.9004 106.615 26.3863 107.353 25.7403C108.954 24.3384 109.836 22.4743 109.836 20.4912V19.3256H121.445V138.15C121.445 139.171 122.392 140 123.559 140C124.727 140 125.674 139.171 125.674 138.15V5.78687C125.674 4.63665 126.743 3.70044 128.058 3.70044C129.373 3.70044 130.443 4.63634 130.443 5.78687V138.15C130.443 139.171 131.39 140 132.557 140C133.725 140 134.672 139.171 134.672 138.15V5.78687C134.671 2.59586 131.705 0 128.058 0ZM85.3744 19.3256V24.8855C85.3744 25.686 85.0199 26.4369 84.3764 27C83.73 27.5652 82.8715 27.8767 81.9594 27.8767C80.0765 27.8767 78.5448 26.5346 78.5448 24.8855V19.3256H85.3744ZM63.3265 15.1101C63.3265 12.4591 65.791 10.3026 68.8208 10.3026C70.2883 10.3026 71.6666 10.8028 72.7052 11.7141C73.7434 12.6204 74.315 13.8267 74.315 15.1101V24.8855C74.315 28.5754 77.7438 31.5771 81.9587 31.5771C84.0003 31.5771 85.9207 30.8808 87.3663 29.6168C88.8088 28.354 89.6031 26.674 89.6031 24.8855V15.1101C89.6031 12.4591 92.0676 10.3026 95.0974 10.3026C96.5642 10.3026 97.9443 10.8034 98.9854 11.7144C100.021 12.6185 100.592 13.8245 100.592 15.1101V25.9352C100.592 25.9407 100.592 25.9466 100.592 25.9521V38.5965L100.61 73.7473C96.6558 68.3891 89.7755 64.8317 81.9591 64.8317C74.155 64.8317 67.2839 68.378 63.3265 73.7223V25.9598C63.3265 25.9577 63.3265 25.9558 63.3265 25.9537V15.1101ZM58.3503 20.4912V19.3256H59.0974V22.5859C58.6252 21.9819 58.3503 21.2566 58.3503 20.4912ZM74.2449 112.281C74.2449 114.914 71.7959 117.057 68.7859 117.057C65.7758 117.057 63.3269 114.914 63.3269 112.281V94.7766C65.9094 98.264 69.7304 100.986 74.2449 102.455V112.281ZM63.9968 84.2495C63.9968 75.583 72.0546 68.5322 81.9594 68.5322C91.8643 68.5322 99.9224 75.5827 99.9224 84.2495C99.9224 92.9162 91.8643 99.9671 81.9594 99.9671C72.0546 99.9671 63.9968 92.9159 63.9968 84.2495ZM95.1718 117.058C92.1617 117.058 89.7128 114.915 89.7128 112.281V102.442C94.2276 100.964 98.0465 98.2331 100.622 94.7368L100.631 112.281C100.631 114.914 98.1818 117.058 95.1718 117.058ZM105.607 20.4912C105.607 21.2744 105.329 22.0189 104.821 22.6436V19.3256H105.607V20.4912Z" fill="black"/>
</g>
<defs>
<clipPath id="clip0_79033_416">
<rect width="160" height="140" fill="white"/>
</clipPath>
</defs>
</svg>
