<svg width="140" height="125" viewBox="0 0 140 125" fill="none" xmlns="http://www.w3.org/2000/svg">
<path d="M115.084 16.2176L115.381 17.0824L118.597 27.4961C119.208 29.4731 118.13 31.5282 116.157 32.3334L115.597 32.521L53.0238 49.1777L118.118 49.1828C120.333 49.1828 122.164 50.7111 122.453 52.6941L122.493 53.2453V99.2762C122.493 107.198 115.833 113.676 107.429 114.145L106.452 114.172H33.5417C25.0102 114.172 18.0343 107.988 17.5293 100.184L17.5 99.2762L17.4988 53.8198L14.4552 43.9553C12.1036 36.3402 16.5828 28.4089 24.5225 25.8069L25.4538 25.5307L95.5394 6.86946C103.74 4.68584 112.282 8.84503 115.084 16.2176ZM113.738 57.3026H26.25V99.2762C26.25 102.548 28.7495 105.278 32.0722 105.909L32.7962 106.012L33.5417 106.047H106.452C110.227 106.047 113.332 103.383 113.706 99.9685L113.743 99.2762L113.738 57.3026ZM36.5907 31.0178L27.8656 33.3409C24.2365 34.3073 22.0422 37.6632 22.6967 41.0408L22.866 41.7159L24.8746 48.2204L26.596 47.7608L36.5907 31.0178ZM64.3359 23.6302L48.4839 27.8511L38.4892 44.594L54.3412 40.3732L64.3359 23.6302ZM92.0867 16.2412L76.2347 20.462L66.24 37.205L82.0864 32.9857L92.0867 16.2412ZM102.862 14.9761L93.9908 29.816L108.974 25.8279L106.97 19.322C106.345 17.2977 104.791 15.7542 102.862 14.9761Z" fill="#212121"/>
</svg>
