<svg width="60" height="60" viewBox="0 0 60 60" fill="none" xmlns="http://www.w3.org/2000/svg">
<path d="M37.7359 53.125C37.7453 51.6659 37.7544 46.6018 37.7544 44.5968C37.7544 41.6993 36.7647 39.8034 35.6547 38.8437C42.5456 38.0737 49.78 35.449 49.78 23.5103C49.78 20.1181 48.585 17.3431 46.6003 15.1718C46.9181 14.3856 47.9794 11.225 46.2919 6.94683C46.2919 6.94683 43.6994 6.11183 37.7912 10.1356C35.3187 9.44402 32.6753 9.10183 30.0463 9.08808C27.4169 9.10183 24.7737 9.44433 22.3009 10.1356C16.3928 6.11183 13.8006 6.94683 13.8006 6.94683C12.1131 11.225 13.1744 14.3856 13.4922 15.1718C11.5075 17.3431 10.3125 20.1181 10.3125 23.5103C10.3125 35.449 17.5466 38.0737 24.4375 38.8437C23.3278 39.8034 22.3378 41.6993 22.3378 44.5968C22.3378 46.6018 22.3472 51.6659 22.3563 53.125M8.4375 40.625C11.5434 40.8446 13.3344 43.6671 13.3344 43.6671C16.095 48.4168 20.5775 47.0431 22.3391 46.25" stroke="black" stroke-width="3" stroke-linecap="round" stroke-linejoin="round"/>
</svg>
