<svg width="90" height="100" viewBox="0 0 90 100" fill="none" xmlns="http://www.w3.org/2000/svg">
<g id="java 1" clip-path="url(#clip0_79031_307)">
<g id="Group">
<path id="Vector" d="M40.8251 77.4427C40.8251 77.4427 36.1619 79.665 44.1439 80.417C53.8138 81.321 58.756 81.1914 69.4124 79.5386C69.4124 79.5386 72.2141 80.9782 76.1268 82.2251C52.238 90.6151 22.0618 81.7391 40.8251 77.4427Z" fill="#5382A1"/>
<path id="Vector_2" d="M37.9061 66.4944C37.9061 66.4944 32.6757 69.667 40.6636 70.3441C50.9934 71.2174 59.151 71.2888 73.2669 69.0614C73.2669 69.0614 75.2193 70.6835 78.2893 71.5705C49.4064 78.4915 17.236 72.1163 37.9061 66.4944Z" fill="#5382A1"/>
<path id="Vector_3" d="M62.5148 47.9223C68.401 53.4757 60.9683 58.4731 60.9683 58.4731C60.9683 58.4731 75.9143 52.1504 69.0502 44.2329C62.6394 36.8493 57.7232 33.1807 84.3377 20.5319C84.3377 20.5319 42.5618 29.082 62.5148 47.9223Z" fill="#E76F00"/>
<path id="Vector_4" d="M94.1096 85.5409C94.1096 85.5409 97.5605 87.871 90.3091 89.6736C76.5201 93.0966 32.9181 94.1303 20.8057 89.81C16.4516 88.2577 24.6168 86.1036 27.1852 85.6516C29.8639 85.1756 31.3946 85.2643 31.3946 85.2643C26.5524 82.469 0.0964947 90.7531 17.9563 93.1255C66.6627 99.5983 106.743 90.2108 94.1096 85.5409Z" fill="#5382A1"/>
<path id="Vector_5" d="M43.0677 55.1507C43.0677 55.1507 20.8889 59.4675 35.2136 61.0351C41.262 61.6987 53.3192 61.5486 64.5501 60.7774C73.7287 60.1429 82.9451 58.7939 82.9451 58.7939C82.9451 58.7939 79.7086 59.9297 77.3671 61.2399C54.845 66.0939 11.3364 63.8358 23.8619 58.8708C34.4548 54.6747 43.0677 55.1507 43.0677 55.1507Z" fill="#5382A1"/>
<path id="Vector_6" d="M82.8536 73.3747C105.748 63.6255 95.1628 54.2565 87.7741 55.5187C85.9632 55.8276 85.1557 56.0953 85.1557 56.0953C85.1557 56.0953 85.828 55.2322 87.112 54.8587C101.729 50.6475 112.971 67.279 82.3935 73.8661C82.3935 73.8661 82.7477 73.6068 82.8536 73.3747Z" fill="#5382A1"/>
<path id="Vector_7" d="M69.0503 0.1073C69.0503 0.1073 81.7297 10.5013 57.0243 26.4843C37.213 39.3054 52.5067 46.6156 57.0161 54.9679C45.4519 46.4178 36.9654 38.8911 42.6588 31.8859C51.0154 21.603 74.1661 16.6175 69.0503 0.1073Z" fill="#E76F00"/>
<path id="Vector_8" d="M45.3174 99.7929C67.2935 100.946 101.04 99.1533 101.84 90.6321C101.84 90.6321 100.303 93.8624 83.6776 96.4278C64.9205 99.3204 41.7862 98.9827 28.0651 97.1289C28.0651 97.1289 30.874 99.0339 45.3174 99.7929Z" fill="#5382A1"/>
</g>
</g>
<defs>
<clipPath id="clip0_79031_307">
<rect width="90" height="100" fill="white"/>
</clipPath>
</defs>
</svg>
