<svg width="60" height="60" viewBox="0 0 60 60" fill="none" xmlns="http://www.w3.org/2000/svg">
<rect width="60" height="60" rx="30" fill="black"/>
<path d="M15.4673 16.3636H21.2429V35.6335C21.2429 37.4148 20.8426 38.9621 20.0419 40.2756C19.2502 41.589 18.1482 42.6011 16.7358 43.3118C15.3234 44.0225 13.6816 44.3778 11.8104 44.3778C10.1461 44.3778 8.63471 44.0855 7.27628 43.5007C5.92685 42.907 4.8563 42.0073 4.06463 40.8018C3.27296 39.5874 2.88163 38.0625 2.89062 36.2273H8.70668C8.72467 36.956 8.87311 37.5812 9.15199 38.103C9.43987 38.6158 9.8312 39.0116 10.326 39.2905C10.8298 39.5604 11.4235 39.6953 12.1072 39.6953C12.8269 39.6953 13.4342 39.5424 13.929 39.2365C14.4328 38.9216 14.8151 38.4628 15.076 37.8601C15.3369 37.2573 15.4673 36.5152 15.4673 35.6335V16.3636Z" fill="white"/>
<path d="M26.0739 16.3636H33.2798L40.8906 34.9318H41.2145L48.8253 16.3636H56.0312V44H50.3636V26.0121H50.1342L42.9822 43.8651H39.1229L31.9709 25.9446H31.7415V44H26.0739V16.3636Z" fill="#FFFEFE"/>
</svg>
