<svg width="60" height="60" viewBox="0 0 60 60" fill="none" xmlns="http://www.w3.org/2000/svg">
<rect width="60" height="60" rx="12" fill="url(#paint0_linear_79044_506)"/>
<path d="M15 19.1667C15 33.434 26.566 45 40.8333 45C41.477 45 42.1152 44.9765 42.7472 44.9302C43.4723 44.877 43.8348 44.8505 44.165 44.6605C44.4383 44.5032 44.6975 44.2242 44.8345 43.94C45 43.597 45 43.1968 45 42.3967V37.7012C45 37.0282 45 36.6917 44.8892 36.4033C44.7915 36.1485 44.6325 35.9217 44.4265 35.7427C44.1933 35.54 43.877 35.425 43.2447 35.195L37.9 33.2515C37.1642 32.984 36.7962 32.8502 36.4472 32.8728C36.1393 32.8928 35.8432 32.998 35.5915 33.1763C35.3062 33.3785 35.1048 33.7142 34.702 34.3857L33.3333 36.6667C28.9168 34.6665 25.3365 31.0815 23.3333 26.6667L25.6144 25.298C26.2858 24.8952 26.6214 24.6938 26.8237 24.4084C27.002 24.1568 27.1072 23.8606 27.1272 23.5528C27.1498 23.2038 27.016 22.8359 26.7485 22.1001L24.805 16.7553C24.575 16.1229 24.46 15.8067 24.2574 15.5735C24.0784 15.3675 23.8515 15.2086 23.5967 15.1108C23.3083 15 22.9718 15 22.2989 15H17.6033C16.8031 15 16.403 15 16.06 15.1654C15.7758 15.3024 15.4969 15.5617 15.3395 15.835C15.1495 16.1651 15.1229 16.5277 15.0698 17.2529C15.0235 17.8848 15 18.523 15 19.1667Z" stroke="white" stroke-width="3" stroke-linecap="round" stroke-linejoin="round"/>
<defs>
<linearGradient id="paint0_linear_79044_506" x1="0" y1="0" x2="60" y2="60" gradientUnits="userSpaceOnUse">
<stop stop-color="#94B6F5"/>
<stop offset="1" stop-color="#7E4FF5" stop-opacity="0.96"/>
</linearGradient>
</defs>
</svg>
