<svg width="90" height="100" viewBox="0 0 90 100" fill="none" xmlns="http://www.w3.org/2000/svg">
<g id="python 1" clip-path="url(#clip0_79031_317)">
<path id="Vector" d="M13.5 0.5H76.5C83.6315 0.5 89.5 6.94102 89.5 15V85C89.5 93.059 83.6315 99.5 76.5 99.5H13.5C6.36855 99.5 0.5 93.059 0.5 85V15C0.5 6.94102 6.36855 0.5 13.5 0.5Z" fill="#29264D" fill-opacity="0.71" stroke="black"/>
<g id="Group">
<path id="p" d="M44.6484 12.5C41.8359 12.5 39.1992 12.6953 36.9141 13.2812C30.0586 14.6484 28.8281 17.3828 28.8281 22.4609V29.2969H45V31.6406H22.8516C18.1055 31.6406 14.0625 34.7656 12.6562 40.625C11.25 47.4609 11.25 51.7578 12.6562 58.7891C13.8867 64.2578 16.6992 67.9688 21.2695 67.9688H26.8945V59.7656C26.8945 53.9062 31.4648 48.6328 36.9141 48.6328H52.9102C57.4805 48.6328 60.9961 44.5312 60.9961 39.6484V22.4609C60.9961 17.7734 57.3047 14.0625 52.9102 13.2812C50.2734 12.6953 47.2852 12.5 44.6484 12.5ZM35.8594 17.9688C37.6172 17.9688 38.8477 19.5312 38.8477 21.4844C38.8477 23.2422 37.6172 24.8047 35.8594 24.8047C34.2773 24.8047 32.8711 23.2422 32.8711 21.4844C32.8711 19.5312 34.2773 17.9688 35.8594 17.9688Z" fill="#5A9FD4"/>
</g>
<path id="p_2" d="M45.3516 87.1094C48.1641 87.1094 50.8008 86.9141 53.0859 86.3281C59.9414 84.9609 61.1719 82.2266 61.1719 77.1484V70.3125H45V67.9688H67.1484C71.8945 67.9688 75.9375 64.8438 77.3438 58.9844C78.75 52.1484 78.75 47.8516 77.3438 40.8203C76.1133 35.3516 73.3008 31.6406 68.7305 31.6406H63.1055V39.8438C63.1055 45.7031 58.5352 50.9766 53.0859 50.9766L37.0898 50.9766C32.5195 50.9766 29.0039 55.0781 29.0039 59.9609V77.1484C29.0039 81.8359 32.6953 85.5469 37.0898 86.3281C39.7266 86.9141 42.7148 87.1094 45.3516 87.1094ZM54.1406 81.6406C52.3828 81.6406 51.1523 80.0781 51.1523 78.125C51.1523 76.3672 52.3828 74.8047 54.1406 74.8047C55.7227 74.8047 57.1289 76.3672 57.1289 78.125C57.1289 80.0781 55.7227 81.6406 54.1406 81.6406Z" fill="#FFD43B"/>
</g>
<defs>
<clipPath id="clip0_79031_317">
<rect width="90" height="100" fill="white"/>
</clipPath>
</defs>
</svg>
