<svg width="90" height="100" viewBox="0 0 90 100" fill="none" xmlns="http://www.w3.org/2000/svg">
<g id="react 1">
<g id="Group">
<path id="Vector" d="M73.9981 34.3061C73.0644 33.949 72.097 33.6112 71.1009 33.2917C71.2646 32.5493 71.4149 31.8164 71.5485 31.0961C73.7416 19.2675 72.3076 9.73838 67.4112 6.60097C62.7161 3.59262 55.0376 6.72931 47.2827 14.228C46.5369 14.9491 45.7891 15.7125 45.0417 16.5127C44.5436 15.9833 44.0463 15.4717 43.5504 14.9824C35.423 6.96427 27.2766 3.58532 22.3849 6.7318C17.6943 9.74888 16.3052 18.7072 18.2793 29.9172C18.47 31 18.6928 32.1057 18.9448 33.2299C17.7918 33.5936 16.6788 33.9813 15.6138 34.3937C6.08531 38.0848 0 43.8698 0 49.8703C0 56.0677 6.53259 62.2838 16.4572 66.0529C17.2404 66.3503 18.0531 66.6316 18.8906 66.8986C18.6188 68.1145 18.3823 69.306 18.1838 70.4681C16.3015 81.4836 17.7715 90.2303 22.4496 93.2283C27.2817 96.3244 35.3913 93.142 43.288 85.4724C43.9121 84.8661 44.5385 84.2232 45.166 83.5493C45.9793 84.4195 46.7913 85.2431 47.5991 86.0156C55.2479 93.329 62.8024 96.2822 67.4762 93.2758C72.3035 90.1708 73.8723 80.7748 71.8355 69.343C71.68 68.4699 71.499 67.578 71.2957 66.6702C71.8652 66.4831 72.4243 66.29 72.9694 66.0892C83.287 62.2909 90 56.1505 90 49.8703C90 43.8481 83.7184 38.0241 73.9981 34.3061ZM71.7602 62.0342C71.2681 62.2152 70.7632 62.3902 70.2486 62.5598C69.1096 58.5533 67.5723 54.2929 65.6911 49.8911C67.4863 45.5942 68.9641 41.3883 70.0713 37.4077C70.9919 37.7037 71.8855 38.016 72.7466 38.3454C81.075 41.5311 86.1552 46.2411 86.1552 49.8703C86.1552 53.7361 80.6687 58.7544 71.7602 62.0342ZM68.0638 70.1727C68.9645 75.2276 69.0931 79.7979 68.4965 83.3707C67.9605 86.5811 66.8825 88.7215 65.5497 89.5788C62.7133 91.4029 56.6479 89.0318 50.1065 82.7773C49.3566 82.0603 48.6013 81.2947 47.8435 80.4845C50.3795 77.4028 52.914 73.8202 55.3876 69.8414C59.7384 69.4124 63.849 68.7111 67.5767 67.7537C67.7602 68.5765 67.9233 69.3836 68.0638 70.1727ZM30.683 89.2635C27.9119 90.3509 25.7049 90.3821 24.3707 89.5273C21.5318 87.708 20.3517 80.6853 21.9615 71.2649C22.1459 70.186 22.3654 69.0778 22.6183 67.945C26.3051 68.8508 30.3855 69.5027 34.7468 69.8955C37.2371 73.7889 39.8448 77.3675 42.4727 80.501C41.8986 81.1169 41.3266 81.7032 40.7579 82.2557C37.2661 85.6471 33.7669 88.0533 30.683 89.2635ZM17.7007 62.0105C13.3122 60.3439 9.68802 58.1779 7.20382 55.8142C4.97161 53.6902 3.84461 51.5814 3.84461 49.8703C3.84461 46.229 8.73051 41.5845 16.8793 38.4277C17.8681 38.0446 18.9031 37.6836 19.9773 37.3445C21.1035 41.415 22.5808 45.6708 24.3637 49.9743C22.5578 54.3416 21.0594 58.6652 19.9222 62.7834C19.1564 62.5388 18.4145 62.2814 17.7007 62.0105ZM22.0525 29.0968C20.3611 19.4923 21.4844 12.2471 24.3111 10.429C27.3221 8.49221 33.9801 11.2537 40.9974 18.1769C41.446 18.6194 41.8963 19.0826 42.3479 19.5618C39.733 22.6815 37.1491 26.2333 34.681 30.1037C30.4482 30.5397 26.3964 31.2399 22.6712 32.1776C22.437 31.1308 22.2295 30.1023 22.0525 29.0968ZM60.8744 39.7481C59.9839 38.0389 59.0696 36.3702 58.1376 34.747C61.0091 35.1504 63.7604 35.6858 66.3441 36.341C65.5684 39.1032 64.6016 41.9912 63.4636 44.9519C62.6472 43.2297 61.7837 41.4933 60.8744 39.7481ZM45.0429 22.6148C46.8163 24.7495 48.5923 27.1329 50.3391 29.7189C48.5788 29.6265 46.7968 29.5785 45 29.5785C43.2202 29.5785 41.4513 29.6255 39.7019 29.7162C41.4505 27.1543 43.2418 24.7741 45.0429 22.6148ZM29.11 39.7776C28.2205 41.4916 27.373 43.2185 26.5695 44.9487C25.4498 41.9983 24.492 39.0971 23.7096 36.2958C26.2774 35.6573 29.0157 35.1352 31.869 34.7395C30.9238 36.3777 30.002 38.059 29.11 39.7776ZM31.9512 65.3058C29.0032 64.9404 26.2237 64.4452 23.6566 63.8243C24.4515 60.973 25.4304 58.0098 26.5738 54.996C27.3794 56.7249 28.2302 58.4525 29.1253 60.1702C30.037 61.9201 30.9816 63.6342 31.9512 65.3058ZM45.1493 77.427C43.327 75.2424 41.5094 72.8259 39.7343 70.2266C41.4575 70.3017 43.2144 70.3402 45 70.3402C46.8344 70.3402 48.6479 70.2942 50.4328 70.2059C48.6802 72.8521 46.9107 75.2723 45.1493 77.427ZM63.5002 54.8423C64.7032 57.8888 65.7172 60.8365 66.5224 63.6392C63.9129 64.3007 61.0955 64.8334 58.127 65.2293C59.0613 63.5842 59.9836 61.8868 60.8898 60.1408C61.8066 58.3744 62.6771 56.6052 63.5002 54.8423ZM57.5594 58.0066C56.1526 60.717 54.7082 63.3044 53.2419 65.7467C50.5712 65.9589 47.8121 66.0682 45 66.0682C42.1992 66.0682 39.4749 65.9715 36.8515 65.7823C35.3261 63.308 33.8503 60.7129 32.4524 58.0299C31.0582 55.3543 29.7753 52.656 28.6126 49.9728C29.775 47.2835 31.0549 44.5821 32.4411 41.9113L32.4407 41.9118C33.8306 39.2338 35.2934 36.6514 36.8047 34.1925C39.4813 33.9677 42.226 33.8504 44.9998 33.8504C47.7862 33.8504 50.5345 33.9686 53.2104 34.1954C54.6986 36.6363 56.1514 39.2103 57.5468 41.8887C58.958 44.5971 60.2543 47.2804 61.4266 49.9121C60.2578 52.5891 58.9644 55.2994 57.5594 58.0066ZM65.4907 10.3019C68.5045 12.233 69.6765 20.0212 67.783 30.2339C67.6622 30.8855 67.5262 31.5493 67.3785 32.2219C63.6446 31.2646 59.5899 30.5523 55.3448 30.1098C52.8718 26.1968 50.3091 22.6395 47.7368 19.5598C48.4284 18.8206 49.119 18.1157 49.8068 17.4505C56.4512 11.0257 62.6613 8.48901 65.4907 10.3019ZM45 40.9407C49.4385 40.9407 53.0367 44.9385 53.0367 49.8703C53.0367 54.8019 49.4385 58.8 45 58.8C40.5615 58.8 36.9633 54.8019 36.9633 49.8703C36.9633 44.9385 40.5615 40.9407 45 40.9407Z" fill="#00D8FF"/>
</g>
</g>
</svg>
