<svg width="77" height="42" viewBox="0 0 77 42" fill="none" xmlns="http://www.w3.org/2000/svg">
<path d="M59.746 20.8288C59.7334 20.7081 59.7136 20.6021 59.6902 20.4981L59.6938 20.5147C59.6022 20.0509 59.4099 19.6495 59.1457 19.3271L50.1599 8.93005C49.7537 8.45792 49.1912 8.16675 48.5694 8.16675C47.3275 8.16675 46.3211 9.33146 46.3211 10.7686C46.3211 11.4862 46.5727 12.1372 46.9789 12.6072L52.1314 18.568H18.0176C16.7775 18.568 15.7711 19.7327 15.7711 21.1678C15.7711 22.6029 16.7775 23.7676 18.0176 23.7676H52.1296L46.9789 29.7263C46.5727 30.1963 46.3211 30.8473 46.3211 31.5649C46.3211 33.002 47.3275 34.1667 48.5694 34.1667C49.1894 34.1667 49.7519 33.8756 50.1581 33.4055L59.1439 23.0043C59.1655 22.9793 59.1727 22.944 59.1924 22.919C59.3703 22.7048 59.5159 22.4552 59.622 22.1786L59.6273 22.1619V22.1557C59.719 21.8853 59.7711 21.5734 59.7711 21.2468C59.7711 21.0992 59.7603 20.9536 59.7406 20.8142L59.7424 20.8288H59.746Z" fill="#C3C3C3"/>
</svg>
