<svg width="150" height="150" viewBox="0 0 150 150" fill="none" xmlns="http://www.w3.org/2000/svg">
<path d="M120.972 80.7902L121.342 81.346L118.049 91.4247L99.4236 97.5161L88.5509 89.5872V80.8702C87.631 81.6325 86.5634 82.2167 85.3927 82.5498V89.5872L74.523 97.5161L55.9025 91.4273L52.5995 81.3457C53.0208 80.6763 53.4497 80.0095 53.91 79.3688L53.915 79.3611L53.9539 79.3119C53.0337 78.428 52.3022 77.3452 51.8422 76.1309C50.7594 78.9838 48.2035 81.1134 45.1514 81.6275C41.8666 88.0213 40.006 95.2755 39.9928 102.957V102.962V103.024C39.9928 113.508 43.4325 123.213 49.2579 131.015C54.9436 138.675 62.9112 144.547 72.1786 147.612C76.8383 149.173 81.8185 150 86.9692 150C92.1325 150 97.1153 149.173 101.785 147.594C111.035 144.541 119.015 138.67 124.701 131.007L124.698 131.012C130.505 123.21 133.945 113.505 133.943 103.023V102.961V102.956C133.927 93.6604 131.2 84.9923 126.505 77.712C125.136 79.369 123.177 80.4958 120.972 80.7902ZM55.8354 129.126C55.3186 128.511 54.8068 127.891 54.326 127.245L54.3207 127.237C49.2811 120.481 46.3118 112.121 46.3092 103.024V102.967C46.3118 102.171 46.3608 101.388 46.4074 100.602L54.9257 94.4309L73.5591 100.522L77.7222 113.256L66.2062 129.126H55.8354V129.126ZM102.023 140.769C101.289 141.061 100.553 141.353 99.7956 141.601L99.7722 141.608C95.7585 142.965 91.4636 143.684 86.9695 143.684C82.4929 143.684 78.1904 142.966 74.1714 141.621L74.148 141.614C73.3936 141.363 72.6594 141.071 71.9255 140.779L68.7521 130.995L80.2783 115.109H93.6398L105.114 131.214L102.023 140.769ZM127.627 102.967V103.024C127.627 112.123 124.658 120.484 119.631 127.24L119.628 127.245C119.148 127.891 118.636 128.508 118.119 129.126H107.505L96.2164 113.284L100.388 100.522L119.021 94.4282L127.532 100.6C127.578 101.385 127.627 102.168 127.627 102.967Z" fill="black"/>
<path d="M109.428 35.0417L108.986 35.7032L103.355 41.332C102.287 42.402 100.558 42.402 99.4883 41.332C98.4184 40.2647 98.4184 38.5359 99.4883 37.466L103.512 33.4421C101.466 32.8011 99.3592 32.0619 97.2296 31.2425L97.1522 31.3591L90.7172 37.7915C89.6496 38.8591 87.9182 38.8591 86.8506 37.7915C85.7806 36.7216 85.7806 34.9928 86.8506 33.9202L91.761 29.0098C89.5772 28.069 87.4139 27.0844 85.3157 26.0792C85.1812 26.3918 84.9952 26.6889 84.7421 26.9449L78.3067 33.3776C77.2421 34.4449 75.508 34.4449 74.4381 33.3776C73.3734 32.3077 73.3734 30.5786 74.4381 29.511L80.3355 23.6136C74.6472 20.7009 69.8302 17.9074 67.0881 16.0775C62.7126 13.1596 60.6246 13.069 58.9107 13.8911V0H53.6179V17.84C50.0203 21.0551 44.0739 26.2755 35.7521 26.2755C26.3839 26.2755 23.1691 23.0604 19.6025 18.9876C18.5868 17.8271 17.5582 17.013 16.5685 16.5038V0H11.2755V17.7211C10.6268 18.8016 10.2343 20.3417 10.2343 22.3573C10.2343 26.5567 10.2343 55.8896 10.2343 61.7048C10.2343 66.9873 12.387 70.6597 20.0393 71.2901L20.2954 74.4044C20.3909 75.6035 21.394 76.5287 22.5981 76.5287H26.4386C27.6404 76.5287 28.6459 75.6035 28.7414 74.4044L29.0179 71.0344C31.667 70.7605 34.347 70.3646 37.3216 69.9645L37.5928 73.2724C37.6886 74.4715 38.6941 75.3967 39.8959 75.3967H43.7361C44.9379 75.3967 45.9433 74.4715 46.0391 73.2724L46.3907 68.9563C49.1792 68.729 52.2545 68.5506 55.7821 68.4809C56.281 68.4706 56.7718 68.4782 57.2528 68.4888L57.6457 73.2724C57.7412 74.4715 58.7467 75.3967 59.9484 75.3967H63.7889C64.9933 75.3967 65.9962 74.4715 66.0917 73.2724L66.3864 69.6826C69.3325 70.2562 72.5786 70.9207 76.6643 71.4141L76.9072 74.4044C77.0053 75.6035 78.0108 76.5287 79.2126 76.5287H83.0505C84.2549 76.5287 85.2577 75.6035 85.3558 74.4044L85.5445 72.0732C88.664 72.1717 92.1838 72.1559 96.2103 71.9725L96.4096 74.4044C96.5077 75.6035 97.5105 76.5287 98.7146 76.5287H102.552C103.754 76.5287 104.759 75.6035 104.857 74.4044L105.108 71.3159C108.144 71.0083 110.954 70.6131 113.517 70.1244L113.706 72.4219C113.804 73.621 114.81 74.5462 116.009 74.5462H119.849C121.053 74.5462 122.056 73.621 122.154 72.4219L122.532 67.7804C135.464 63.3146 139.767 56.0033 139.767 49.1054C139.766 39.8227 124.353 38.5406 109.428 35.0417ZM26.2418 35.9537C23.2207 35.9537 14.5318 35.9537 14.5318 35.9537C14.5318 35.9537 14.5318 24.6264 14.5318 23.303C14.5318 21.98 15.8552 21.034 17.5555 22.546C18.3126 23.2204 24.5385 28.9685 26.9962 30.1002C29.4515 31.2349 29.2629 35.9537 26.2418 35.9537ZM44.9631 59.748L30.7722 40.4868H38.7038L52.8946 59.748H44.9631ZM61.0974 59.748L46.9066 40.4868H54.8382L69.029 59.748H61.0974ZM78.0923 59.748L63.9014 40.4868H71.8353L86.0235 59.748H78.0923Z" fill="black"/>
</svg>
