<svg width="60" height="60" viewBox="0 0 60 60" fill="none" xmlns="http://www.w3.org/2000/svg">
<rect width="60" height="60" rx="12" fill="url(#paint0_linear_79044_504)"/>
<path fill-rule="evenodd" clip-rule="evenodd" d="M18.4884 30C18.4884 23.2937 23.7985 17.8571 30.3488 17.8571C36.8992 17.8571 42.2093 23.2937 42.2093 30C42.2093 36.7062 36.8992 42.1428 30.3488 42.1428C28.0155 42.1428 25.8436 41.4545 24.0111 40.2658C23.6701 40.0447 23.2522 39.9855 22.8654 40.1037L18.8479 41.3312L20.3606 37.7075C20.5393 37.2792 20.503 36.7887 20.2631 36.393C19.1382 34.5371 18.4884 32.3484 18.4884 30ZM30.3488 15C22.2573 15 15.6977 21.7157 15.6977 30C15.6977 32.6258 16.3579 35.0975 17.5181 37.2467L15.1123 43.0099C14.8996 43.5195 14.9939 44.1089 15.3542 44.5224C15.7145 44.9359 16.2758 45.0988 16.7944 44.9402L23.0727 43.0221C25.2174 44.2806 27.7028 44.9999 30.3488 44.9999C38.4405 44.9999 45 38.2842 45 30C45 21.7157 38.4405 15 30.3488 15ZM33.5477 33.1177L31.7139 34.4401C30.8551 33.9392 29.9055 33.2401 28.9531 32.265C27.9629 31.2513 27.2289 30.2047 26.6876 29.2447L27.853 28.232C28.3531 27.7974 28.49 27.0647 28.1819 26.4718L26.697 23.6147C26.497 23.2299 26.1365 22.9597 25.7179 22.8808C25.2993 22.8018 24.8683 22.9228 24.5476 23.2094L24.1074 23.6028C23.0487 24.5488 22.4226 26.1033 22.9415 27.6773C23.4795 29.309 24.6277 31.8771 26.9798 34.2852C29.5104 36.8761 32.0809 37.8964 33.5841 38.2927C34.7953 38.6118 35.9414 38.184 36.749 37.5102L37.5744 36.8217C37.9274 36.5272 38.1179 36.0748 38.0847 35.6098C38.0513 35.1448 37.7985 34.7257 37.4072 34.487L35.0654 33.0584C34.5924 32.77 33.998 32.7931 33.5477 33.1177Z" fill="white"/>
<defs>
<linearGradient id="paint0_linear_79044_504" x1="0" y1="0" x2="60" y2="60" gradientUnits="userSpaceOnUse">
<stop stop-color="#94B6F5"/>
<stop offset="1" stop-color="#7E4FF5" stop-opacity="0.96"/>
</linearGradient>
</defs>
</svg>
