<svg width="60" height="60" viewBox="0 0 60 60" fill="none" xmlns="http://www.w3.org/2000/svg">
<path fill-rule="evenodd" clip-rule="evenodd" d="M5 15C5 9.47715 9.47715 5 15 5H45C50.5227 5 55 9.47715 55 15V45C55 50.5228 50.5227 55 45 55H15C9.47715 55 5 50.5228 5 45V15ZM15 10C12.2386 10 10 12.2386 10 15V45C10 47.7615 12.2386 50 15 50H45C47.7615 50 50 47.7615 50 45V15C50 12.2386 47.7615 10 45 10H15ZM30 22.5C25.8577 22.5 22.5 25.8577 22.5 30C22.5 34.1423 25.8577 37.5 30 37.5C34.1422 37.5 37.5 34.1423 37.5 30C37.5 25.8577 34.1422 22.5 30 22.5ZM17.5 30C17.5 23.0965 23.0964 17.5 30 17.5C36.9035 17.5 42.5 23.0965 42.5 30C42.5 36.9035 36.9035 42.5 30 42.5C23.0964 42.5 17.5 36.9035 17.5 30ZM43.75 20C45.821 20 47.5 18.3211 47.5 16.25C47.5 14.1789 45.821 12.5 43.75 12.5C41.679 12.5 40 14.1789 40 16.25C40 18.3211 41.679 20 43.75 20Z" fill="black"/>
</svg>
