<svg width="90" height="100" viewBox="0 0 90 100" fill="none" xmlns="http://www.w3.org/2000/svg">
<g id="javascript 1" clip-path="url(#clip0_79031_302)">
<g id="Group">
<path id="Vector" d="M0 0H90V100H0V0Z" fill="#F7DF1E"/>
<path id="Vector_2" d="M23.6643 83.5673L30.5518 78.936C31.8805 81.5536 33.0892 83.7684 35.9885 83.7684C38.7676 83.7684 40.5198 82.5605 40.5198 77.8621V45.9097H48.9775V77.9949C48.9775 87.7282 43.8426 92.1586 36.351 92.1586C29.5852 92.1586 25.6578 88.2651 23.6642 83.5665" fill="black"/>
<path id="Vector_3" d="M53.5714 82.5604L60.458 78.1301C62.2708 81.4196 64.627 83.8359 68.7953 83.8359C72.2997 83.8359 74.5344 81.8891 74.5344 79.204C74.5344 75.982 72.2388 74.8407 68.3723 72.9618L66.2584 71.9542C60.1563 69.0683 56.1084 65.4435 56.1084 57.791C56.1084 50.7428 60.9414 45.3724 68.4934 45.3724C73.8703 45.3724 77.7367 47.4535 80.5154 52.8909L73.9303 57.5894C72.4803 54.7032 70.91 53.5623 68.4936 53.5623C66.0166 53.5623 64.4457 55.3075 64.4457 57.5894C64.4457 60.4088 66.0166 61.5502 69.641 63.2956L71.7553 64.3024C78.9446 67.7261 82.9924 71.2162 82.9924 79.0697C82.9924 87.5281 77.0116 92.1594 68.9767 92.1594C61.123 92.1594 56.048 87.9978 53.5714 82.5604Z" fill="black"/>
</g>
</g>
<defs>
<clipPath id="clip0_79031_302">
<rect width="90" height="100" fill="white"/>
</clipPath>
</defs>
</svg>
