<svg width="60" height="60" viewBox="0 0 60 60" fill="none" xmlns="http://www.w3.org/2000/svg">
<path fill-rule="evenodd" clip-rule="evenodd" d="M17.9886 51.9999V22.3118H8.55754V51.9998H17.9886V51.9999ZM13.2741 18.2599C16.5618 18.2599 18.6099 15.9783 18.6099 13.1294C18.5477 10.2172 16.5618 8 13.3357 8C10.1091 8.00009 8 10.2173 8 13.1295C8 15.9784 10.0469 18.26 13.212 18.26L13.2741 18.2599ZM23.2084 51.9999C23.2084 51.9999 23.3321 25.0973 23.2084 22.3119H32.6409V26.6173H32.5783C33.8186 24.5913 36.053 21.6147 41.1407 21.6147C47.3476 21.6147 52 25.8579 52 34.977V52H42.569V36.1177C42.569 32.1269 41.2044 29.4037 37.7904 29.4037C35.1853 29.4037 33.6328 31.2396 32.9511 33.0143C32.7016 33.6459 32.6409 34.5331 32.6409 35.4205V51.9999H23.2084Z" fill="black"/>
</svg>
